<?xml version="1.0" encoding="utf-8"?>
<!-- Generator: Adobe Illustrator 27.9.0, SVG Export Plug-In . SVG Version: 6.00 Build 0)  -->
<svg version="1.1" id="Layer_1" xmlns="http://www.w3.org/2000/svg" xmlns:xlink="http://www.w3.org/1999/xlink" x="0px" y="0px"
	 viewBox="0 0 1080 1080" style="enable-background:new 0 0 1080 1080;" xml:space="preserve">
<style type="text/css">
	.st0{fill:#FFFFFF;}
</style>
<g>
	<path class="st0" d="M903.35,593.47c-15.56-18.63-34.79-34.2-50.28-49.17c16.13-18.66,35.25-36.79,49.63-58.12
		c50.8-75.33,53.05-154.39,8.17-232.48c-47.1-81.96-121.54-121.83-215-123.31c-2.8-0.04-5.6-0.08-8.4-0.12
		c8.37,3.58,16.49,7.57,24.34,12c40.22,22.68,73.39,56.4,98.57,100.22c49.3,85.8,46.18,174.42-9.03,256.27
		c-10.87,16.11-23.67,29.99-36.06,43.42c-0.22,0.24-0.44,0.47-0.65,0.71c11.64,10.61,24.64,22.58,35.97,36.15
		c45.6,54.6,63.93,118.35,54.48,189.46c-7.51,56.58-33.58,110.14-73.39,150.82c-24.11,24.64-52.24,43.93-83.24,57.32
		c3.17-0.01,6.34-0.01,9.51-0.02c12.34-0.02,24.76-1.14,37-2.8c112-15.12,193.81-102.77,207.82-208.29
		C961.38,700.92,944.89,643.22,903.35,593.47z"/>
</g>
<g>
	<path class="st0" d="M401.75,854.44c-23.14-0.01-46.34-0.01-69.63-0.01c0-82.24,0-163.79,0-247.58c6.94,0,13.42-0.02,19.91,0
		c40.21,0.11,80.41,0.24,120.62,0.35l34.66-120.88c-52.04,0-104.09,0.11-156.13,0.16c-5.74,0-11.48,0-18.9,0
		c0-78.41,0-155.44,0-233.94c7.64,0,14.6,0,21.57,0c70.13-0.04,140.27-0.63,210.4,0.07c3.35,0.03,6.68,0.16,9.98,0.37l34.52-120.38
		c-10.67-1.29-21.63-2.03-32.86-2.21c-109.16-1.73-218.37-0.5-327.56-0.34c-9.71,0.01-19.52,0.94-29.1,2.55
		c-47.61,8.01-78.34,43.55-76.02,87.39c1.48,28.01,16.88,42.83,44.44,42.78c5.72-0.01,11.44,0,18.14,0c0,196.27,0,390.78,0,585.91
		c-10.02,0-18.92,0.6-27.71-0.14c-14.2-1.18-23.73,5.83-27.6,18.02c-3.76,11.87-7.2,25.26-5.45,37.2
		c6.21,42.31,41.99,71.97,88.79,72.48c44.27,0.48,88.54,0.68,132.82,0.74L401.75,854.44z"/>
	<path class="st0" d="M783.35,593.47c-15.56-18.63-34.79-34.2-50.28-49.17c16.13-18.66,35.25-36.79,49.63-58.12
		c50.8-75.33,53.05-154.39,8.17-232.48c-36.5-63.52-89.42-101.74-154.89-116.43l-34.35,119.78c23.62,5.74,45.01,17.37,62.88,36.75
		c54.42,59.04,30.16,145.51-39.98,179.87c-19.42,9.52-40.14,12.73-61.64,12.69c-9-0.02-18-0.01-27.01-0.02l-34.68,120.94
		c22.13,0.06,44.26,0.13,66.4,0.18c61.69,0.15,119.52,41.43,135.57,94.47c21.99,72.64-37.37,152.37-113.12,152.47
		c-53.14,0.07-106.28,0.06-159.72,0.05L395.2,976.99c64.26-0.01,128.53-0.26,192.79-0.35c12.34-0.02,24.76-1.14,37-2.8
		c112-15.12,193.81-102.77,207.82-208.29C841.38,700.92,824.89,643.22,783.35,593.47z"/>
</g>
</svg>
